# xmcd CD database file generated by Grip 3.3.1
# 
# Track frame offsets:
#       150
#       14169
#       26547
#       42599
#       57517
#       79400
#       96127
#       112407
#       124180
#       137615
#       165657
#       183577
#       198961
#       221982
# 
# Disc length: 3124 seconds
# 
# Revision: 1
# Processed by: cddbd v1.5.2PL0 Copyright (c) Steve Scherf et al.
# Submitted via: Grip 3.3.1
# 
DISCID=d90c320e
DTITLE=Lyle Lovett - Release Me
DYEAR=2012
DGENRE=Country
TTITLE0=Garfield's Blackberry Blossom
TTITLE1=Release Me
TTITLE2=White Boy Lost in the Blues
TTITLE3=Baby, It's Cold Outside
TTITLE4=Isn't That So
TTITLE5=Understand You
TTITLE6=Brown Eyed Handsome Man
TTITLE7=Keep It Clean
TTITLE8=One Way Gal
TTITLE9=Dress of Laces
TTITLE10=The Girl with the Holiday Smile
TTITLE11=Night's Lullaby
TTITLE12=White Freightliner Blues
TTITLE13=Keep Us Steadfast
EXTD=
EXTT0=
EXTT1=
EXTT2=
EXTT3=
EXTT4=
EXTT5=
EXTT6=
EXTT7=
EXTT8=
EXTT9=
EXTT10=
EXTT11=
EXTT12=
EXTT13=
PLAYORDER=
